<?xml version="1.0" encoding="utf-8"?>
<!-- Generator: Adobe Illustrator 23.0.2, SVG Export Plug-In . SVG Version: 6.00 Build 0)  -->
<svg version="1.1" id="Layer_1" xmlns="http://www.w3.org/2000/svg" xmlns:xlink="http://www.w3.org/1999/xlink" x="0px" y="0px"
	 viewBox="0 0 88.3 25.9" style="enable-background:new 0 0 88.3 25.9;" xml:space="preserve">
<style type="text/css">
	.st0{fill:#3A7BD5;}
	.st1{fill:#FFFFFF;}
	.st2{fill:none;}
	.st3{fill:#606060;}
	.st4{fill:#0071BC;}
</style>
<title>ckan-logo-white</title>
<rect y="3.4" class="st0" width="18.4" height="5"/>
<rect x="1.1" y="4.3" class="st1" width="16.3" height="3.2"/>
<rect x="7.6" y="3.4" class="st0" width="10.9" height="5"/>
<rect y="9.1" class="st0" width="18.4" height="5"/>
<rect x="1.1" y="10.1" class="st1" width="16.3" height="3.2"/>
<rect x="10.9" y="9.1" class="st0" width="7.5" height="5"/>
<rect y="14.9" class="st0" width="18.4" height="5"/>
<rect x="1.1" y="15.8" class="st1" width="16.3" height="3.2"/>
<rect x="4.7" y="14.9" class="st0" width="13.8" height="5"/>
<rect y="20.7" class="st0" width="18.4" height="5"/>
<rect x="1.1" y="21.6" class="st1" width="16.3" height="3.2"/>
<rect x="17.4" y="20.7" class="st0" width="1" height="5"/>
<rect x="21.3" y="5.2" class="st2" width="59" height="10.8"/>
<g>
	<path class="st3" d="M29.2,9.3c0,0.5-0.1,1.1-0.3,1.6c-0.2,0.5-0.4,0.9-0.8,1.3c-0.3,0.4-0.7,0.6-1.2,0.8c-1,0.4-2,0.4-3,0
		c-0.4-0.2-0.8-0.5-1.2-0.8c-0.3-0.4-0.6-0.8-0.8-1.3c-0.4-1-0.4-2.2,0-3.2c0.2-0.5,0.4-0.9,0.8-1.3c0.3-0.4,0.7-0.6,1.2-0.8
		c1-0.4,2-0.4,3,0c0.4,0.2,0.8,0.5,1.2,0.8c0.3,0.4,0.6,0.8,0.8,1.3C29.1,8.2,29.2,8.8,29.2,9.3z M28.1,9.3c0-0.4-0.1-0.8-0.2-1.2
		c-0.1-0.3-0.3-0.7-0.5-0.9c-0.2-0.3-0.5-0.5-0.8-0.6c-0.7-0.3-1.4-0.3-2.1,0c-0.3,0.1-0.6,0.3-0.8,0.6c-0.2,0.3-0.4,0.6-0.5,0.9
		c-0.1,0.4-0.2,0.8-0.2,1.2c0,0.4,0.1,0.8,0.2,1.2c0.1,0.3,0.3,0.7,0.5,0.9c0.2,0.3,0.5,0.5,0.8,0.6c0.7,0.3,1.4,0.3,2.1,0
		c0.3-0.1,0.6-0.3,0.8-0.6c0.2-0.3,0.4-0.6,0.5-0.9C28,10.2,28,9.8,28.1,9.3L28.1,9.3z"/>
	<path class="st3" d="M31.2,8.5c0.1-0.1,0.2-0.3,0.4-0.4C31.7,8,31.9,8,32,7.9c0.1-0.1,0.3-0.1,0.5-0.2c0.2,0,0.4-0.1,0.5-0.1
		c0.3,0,0.6,0.1,0.8,0.2c0.3,0.1,0.5,0.3,0.6,0.5c0.2,0.3,0.3,0.6,0.4,0.9C34.9,9.6,35,10,35,10.4c0,0.4-0.1,0.8-0.2,1.1
		c-0.1,0.3-0.2,0.6-0.5,0.9c-0.2,0.3-0.4,0.5-0.7,0.6c-0.3,0.2-0.7,0.2-1,0.2c-0.3,0-0.6,0-0.8-0.2c-0.2-0.1-0.4-0.3-0.6-0.5V15h-1
		V7.7h0.6c0.1,0,0.2,0.1,0.3,0.2L31.2,8.5z M31.3,11.9c0.1,0.2,0.3,0.4,0.5,0.5c0.2,0.1,0.4,0.1,0.6,0.1c0.4,0,0.8-0.2,1.1-0.5
		c0.3-0.5,0.4-1,0.4-1.6c0-0.3,0-0.6-0.1-0.9c0-0.2-0.1-0.4-0.2-0.6c-0.1-0.2-0.2-0.3-0.4-0.4c-0.2-0.1-0.4-0.1-0.5-0.1
		c-0.3,0-0.5,0.1-0.8,0.2c-0.2,0.2-0.4,0.4-0.6,0.6L31.3,11.9z"/>
	<path class="st3" d="M40.4,12.4c-0.1,0.2-0.3,0.3-0.4,0.4c-0.2,0.1-0.3,0.2-0.5,0.3c-0.2,0.1-0.4,0.1-0.6,0.1c-0.2,0-0.4,0-0.6,0
		c-0.3,0-0.7-0.1-1-0.2c-0.3-0.1-0.6-0.3-0.8-0.6c-0.2-0.3-0.4-0.6-0.5-0.9c-0.1-0.4-0.2-0.8-0.2-1.1c0-0.4,0.1-0.7,0.2-1.1
		c0.1-0.3,0.3-0.6,0.5-0.9c0.2-0.2,0.5-0.4,0.8-0.6c0.3-0.1,0.7-0.2,1-0.2c0.3,0,0.6,0.1,0.9,0.2c0.3,0.1,0.5,0.3,0.7,0.5
		c0.2,0.2,0.4,0.5,0.5,0.8c0.1,0.3,0.2,0.7,0.2,1.1c0,0.1,0,0.2,0,0.3c0,0.1-0.1,0.1-0.2,0.1h-3.4c0,0.3,0,0.6,0.1,0.9
		c0.1,0.2,0.2,0.4,0.3,0.6c0.1,0.2,0.3,0.3,0.5,0.4c0.2,0.1,0.4,0.1,0.7,0.1c0.2,0,0.4,0,0.6-0.1c0.1,0,0.3-0.1,0.4-0.2l0.3-0.2
		c0.1,0,0.1-0.1,0.2-0.1c0.1,0,0.1,0,0.2,0.1L40.4,12.4z M39.6,9.9c0-0.2,0-0.4-0.1-0.6c-0.1-0.2-0.1-0.3-0.2-0.5
		c-0.1-0.1-0.3-0.2-0.4-0.3c-0.5-0.2-1.1-0.1-1.6,0.3c-0.3,0.3-0.4,0.7-0.5,1.1L39.6,9.9z"/>
	<path class="st3" d="M42.6,8.5c0.1-0.1,0.2-0.2,0.4-0.4c0.1-0.1,0.3-0.2,0.4-0.3c0.3-0.2,0.7-0.2,1-0.2c0.3,0,0.5,0,0.8,0.1
		c0.2,0.1,0.4,0.2,0.5,0.4C45.8,8.4,46,8.6,46,8.9c0.1,0.3,0.1,0.6,0.1,0.9v3.5h-1V9.7c0-0.3-0.1-0.7-0.3-0.9
		c-0.2-0.2-0.5-0.3-0.8-0.3c-0.3,0-0.5,0.1-0.7,0.2c-0.2,0.1-0.5,0.3-0.6,0.5v4h-1.1V7.7h0.6c0.1,0,0.2,0.1,0.3,0.2L42.6,8.5z"/>
	<path class="st3" d="M56.8,9.3c0,0.5-0.1,1.1-0.3,1.6c-0.2,0.5-0.4,0.9-0.8,1.2c-0.3,0.3-0.7,0.6-1.2,0.8c-0.5,0.2-1,0.3-1.5,0.3
		h-2.8V5.4h2.8c0.5,0,1,0.1,1.5,0.3c0.4,0.2,0.8,0.5,1.2,0.8c0.3,0.4,0.6,0.8,0.8,1.2C56.7,8.3,56.8,8.8,56.8,9.3z M55.6,9.3
		c0-0.4-0.1-0.8-0.2-1.2c-0.1-0.3-0.3-0.7-0.5-0.9c-0.2-0.3-0.5-0.5-0.8-0.6c-0.3-0.1-0.7-0.2-1.1-0.2h-1.7v5.9h1.7
		c0.4,0,0.7-0.1,1.1-0.2c0.3-0.1,0.6-0.3,0.8-0.6c0.2-0.3,0.4-0.6,0.5-0.9C55.6,10.2,55.6,9.8,55.6,9.3L55.6,9.3z"/>
	<path class="st3" d="M57.7,8.5c0.3-0.3,0.6-0.5,1-0.7c0.4-0.1,0.7-0.2,1.1-0.2c0.3,0,0.5,0,0.8,0.1C60.8,7.9,61,8,61.2,8.2
		c0.2,0.2,0.3,0.4,0.4,0.7c0.1,0.3,0.1,0.6,0.1,0.9v3.5h-0.5c-0.1,0-0.2,0-0.2-0.1c-0.1,0-0.1-0.1-0.1-0.2l-0.1-0.5
		c-0.1,0.1-0.3,0.2-0.4,0.3c-0.1,0.1-0.3,0.2-0.4,0.3c-0.1,0.1-0.3,0.1-0.5,0.2c-0.2,0-0.4,0.1-0.5,0.1c-0.2,0-0.4,0-0.6-0.1
		c-0.4-0.1-0.7-0.4-0.8-0.7c-0.1-0.2-0.1-0.4-0.1-0.6c0-0.2,0.1-0.4,0.2-0.6c0.1-0.2,0.3-0.4,0.5-0.5c0.3-0.2,0.6-0.3,1-0.4
		c0.5-0.1,1-0.2,1.5-0.2V9.7c0-0.3-0.1-0.7-0.3-0.9c-0.2-0.2-0.5-0.3-0.8-0.3c-0.2,0-0.4,0-0.6,0.1c-0.1,0-0.3,0.1-0.4,0.2l-0.3,0.2
		C58.4,9,58.3,9,58.2,9C58.1,9,58.1,9,58,9c0,0-0.1-0.1-0.1-0.1L57.7,8.5z M60.7,10.8c-0.4,0-0.7,0-1,0.1c-0.2,0-0.5,0.1-0.7,0.2
		c-0.2,0.1-0.3,0.2-0.4,0.3c-0.1,0.1-0.1,0.3-0.1,0.4c0,0.1,0,0.2,0.1,0.4c0,0.1,0.1,0.2,0.1,0.2c0.1,0.1,0.2,0.1,0.3,0.1
		c0.1,0,0.2,0,0.3,0c0.1,0,0.3,0,0.4,0c0.1,0,0.3-0.1,0.4-0.1c0.1-0.1,0.2-0.1,0.3-0.2c0.1-0.1,0.2-0.2,0.3-0.3L60.7,10.8z"/>
	<path class="st3" d="M64.6,13.3c-0.4,0-0.7-0.1-1-0.4c-0.2-0.3-0.4-0.7-0.3-1.1V8.6h-0.6c-0.1,0-0.1,0-0.2-0.1c0,0-0.1-0.1-0.1-0.2
		V7.9l0.9-0.1l0.2-1.7c0-0.1,0-0.1,0.1-0.2c0,0,0.1-0.1,0.2-0.1h0.5v1.8h1.5v0.8h-1.5v3.2c0,0.2,0,0.4,0.2,0.5
		c0.1,0.1,0.2,0.2,0.4,0.2c0.1,0,0.2,0,0.2,0l0.2-0.1l0.1-0.1c0,0,0.1,0,0.1,0c0,0,0.1,0,0.1,0l0.1,0.1l0.3,0.5
		c-0.2,0.2-0.4,0.3-0.6,0.4C65.1,13.3,64.8,13.3,64.6,13.3z"/>
	<path class="st3" d="M66.6,8.5c0.3-0.3,0.6-0.5,1-0.7c0.4-0.1,0.7-0.2,1.1-0.2c0.3,0,0.5,0,0.8,0.1C69.8,7.9,70,8,70.1,8.2
		c0.2,0.2,0.3,0.4,0.4,0.7c0.1,0.3,0.1,0.6,0.1,0.9v3.5h-0.4c-0.1,0-0.2,0-0.2-0.1c-0.1,0-0.1-0.1-0.1-0.2l-0.2-0.5
		c-0.1,0.1-0.3,0.2-0.4,0.3c-0.1,0.1-0.3,0.2-0.4,0.3c-0.1,0.1-0.3,0.1-0.5,0.2c-0.2,0-0.4,0.1-0.5,0.1c-0.2,0-0.4,0-0.6-0.1
		c-0.2-0.1-0.3-0.1-0.5-0.3c-0.1-0.1-0.2-0.3-0.3-0.5c-0.1-0.2-0.1-0.4-0.1-0.6c0-0.2,0.1-0.4,0.2-0.6c0.1-0.2,0.3-0.4,0.6-0.5
		c0.3-0.2,0.6-0.3,1-0.4c0.5-0.1,1-0.2,1.5-0.2V9.7c0-0.3-0.1-0.7-0.2-0.9c-0.2-0.2-0.5-0.3-0.8-0.3c-0.2,0-0.4,0-0.6,0.1
		c-0.1,0-0.3,0.1-0.4,0.2l-0.3,0.2C67.2,9,67.1,9,67,9C67,9,66.9,9,66.9,9c0,0-0.1-0.1-0.1-0.1L66.6,8.5z M69.6,10.8
		c-0.3,0-0.7,0-1,0.1c-0.2,0-0.5,0.1-0.7,0.2c-0.2,0.1-0.3,0.2-0.4,0.3c-0.1,0.1-0.1,0.3-0.1,0.4c0,0.1,0,0.2,0.1,0.4
		c0,0.1,0.1,0.2,0.2,0.2c0.1,0.1,0.2,0.1,0.3,0.1c0.1,0,0.2,0,0.3,0c0.1,0,0.3,0,0.4,0c0.1,0,0.3-0.1,0.4-0.1
		c0.1-0.1,0.2-0.1,0.3-0.2c0.1-0.1,0.2-0.2,0.3-0.3L69.6,10.8z"/>
</g>
<g>
	<path class="st4" d="M28.4,16.2v7.9h-0.7c-0.1,0-0.2,0-0.3-0.1c-0.1,0-0.2-0.1-0.2-0.2l-3.9-5.2c0,0.2,0,0.5,0,0.7v4.8h-1.2v-7.9
		H23h0.1l0.1,0.1l0.1,0.1l3.9,5.2c0-0.2,0-0.5,0-0.7v-4.7H28.4z"/>
	<path class="st4" d="M30.7,21.4c0,0.3,0.1,0.5,0.1,0.7c0.1,0.2,0.2,0.4,0.3,0.5c0.1,0.1,0.3,0.2,0.4,0.3c0.2,0.1,0.4,0.1,0.6,0.1
		c0.2,0,0.4,0,0.5-0.1c0.1,0,0.3-0.1,0.4-0.2l0.3-0.2c0.1,0,0.2-0.1,0.2-0.1c0.1,0,0.2,0,0.2,0.1l0.4,0.5c-0.1,0.2-0.3,0.3-0.5,0.4
		c-0.2,0.1-0.4,0.2-0.5,0.3C33.1,24,32.9,24,32.7,24c-0.2,0-0.4,0-0.6,0c-0.3,0-0.7-0.1-1-0.2c-0.3-0.1-0.6-0.3-0.8-0.6
		c-0.2-0.3-0.4-0.6-0.6-0.9c-0.1-0.4-0.2-0.9-0.2-1.3c0-0.3,0-0.7,0.1-1c0.1-0.3,0.3-0.6,0.5-0.9c0.2-0.3,0.5-0.5,0.8-0.6
		c0.6-0.3,1.4-0.3,2,0c0.3,0.1,0.5,0.3,0.7,0.5c0.2,0.2,0.4,0.5,0.5,0.8c0.1,0.3,0.2,0.7,0.2,1.1c0,0.1,0,0.3-0.1,0.4
		c-0.1,0.1-0.1,0.1-0.2,0.1L30.7,21.4z M33.2,20.6c0-0.2,0-0.3-0.1-0.5c0-0.1-0.1-0.3-0.2-0.4c-0.1-0.1-0.2-0.2-0.4-0.3
		c-0.5-0.2-1-0.1-1.4,0.2c-0.2,0.3-0.4,0.6-0.4,0.9L33.2,20.6z"/>
	<path class="st4" d="M36.5,19.2c0.2-0.2,0.5-0.5,0.7-0.6c0.3-0.2,0.7-0.3,1-0.2c0.3,0,0.6,0.1,0.8,0.2c0.2,0.1,0.5,0.3,0.6,0.5
		c0.2,0.3,0.3,0.6,0.4,0.9c0.1,0.4,0.1,0.8,0.1,1.2c0,0.4-0.1,0.8-0.2,1.2c-0.1,0.3-0.3,0.6-0.5,0.9c-0.2,0.3-0.4,0.5-0.7,0.6
		c-0.3,0.2-0.6,0.2-1,0.2c-0.5,0-1-0.2-1.3-0.5v2.3h-1.3v-7.4h0.8c0.2,0,0.3,0.1,0.3,0.2L36.5,19.2z M36.6,22.6
		c0.1,0.2,0.3,0.3,0.5,0.4c0.2,0.1,0.4,0.1,0.6,0.1c0.2,0,0.4,0,0.5-0.1c0.2-0.1,0.3-0.2,0.4-0.4c0.1-0.2,0.2-0.4,0.2-0.6
		c0.1-0.3,0.1-0.6,0.1-0.8c0-0.3,0-0.6-0.1-0.8c0-0.2-0.1-0.4-0.2-0.5c-0.1-0.1-0.2-0.2-0.3-0.3c-0.1-0.1-0.3-0.1-0.5-0.1
		c-0.2,0-0.5,0.1-0.7,0.2c-0.2,0.1-0.4,0.3-0.5,0.5L36.6,22.6z"/>
	<path class="st4" d="M41.1,19.3c0.6-0.6,1.4-0.9,2.2-0.9c0.3,0,0.6,0,0.8,0.2c0.2,0.1,0.4,0.3,0.6,0.5c0.2,0.2,0.3,0.4,0.4,0.7
		c0.1,0.3,0.1,0.6,0.1,0.9v3.5h-0.6c-0.1,0-0.2,0-0.3-0.1c-0.1-0.1-0.1-0.1-0.2-0.2l-0.1-0.4c-0.1,0.1-0.3,0.2-0.4,0.3
		c-0.1,0.1-0.3,0.2-0.4,0.2c-0.1,0.1-0.3,0.1-0.4,0.1c-0.2,0-0.3,0.1-0.5,0c-0.2,0-0.4,0-0.6-0.1c-0.2-0.1-0.3-0.2-0.5-0.3
		c-0.1-0.1-0.2-0.3-0.3-0.5c-0.1-0.2-0.1-0.4-0.1-0.7c0-0.1,0-0.3,0.1-0.4c0-0.1,0.1-0.3,0.2-0.4c0.1-0.1,0.2-0.3,0.4-0.4
		c0.2-0.1,0.4-0.2,0.6-0.3c0.3-0.1,0.5-0.2,0.8-0.2c0.4-0.1,0.7-0.1,1.1-0.1v-0.3c0-0.3-0.1-0.6-0.2-0.8c-0.2-0.2-0.4-0.3-0.7-0.3
		c-0.2,0-0.4,0-0.5,0.1c-0.1,0-0.2,0.1-0.4,0.2L42,19.9c-0.1,0.1-0.2,0.1-0.3,0.1c-0.1,0-0.2,0-0.2-0.1c-0.1,0-0.1-0.1-0.2-0.2
		L41.1,19.3z M44,21.7c-0.3,0-0.6,0-0.9,0.1c-0.2,0-0.4,0.1-0.6,0.2c-0.1,0.1-0.2,0.2-0.3,0.3c-0.2,0.3-0.1,0.6,0.1,0.8
		c0.2,0.1,0.3,0.2,0.5,0.1c0.2,0,0.5,0,0.7-0.1c0.2-0.1,0.4-0.3,0.6-0.5L44,21.7z"/>
	<path class="st4" d="M47.8,16v8.1h-1.3V16H47.8z"/>
</g>
</svg>
